<svg xmlns="http://www.w3.org/2000/svg" viewBox="0 0 113.39 113.39"><path d="M24.79 9.93l-.31.23c.69-.45.69-.45.94-.59l-.42.3.25-.09L25 10l.75-.44a13.28 13.28 0 0 0-2.63 1.9A18.72 18.72 0 0 0 21 13l.47-.29a49.36 49.36 0 0 0-5.35 4.5 29.57 29.57 0 0 0-2.43 2.49l.51-.57a52.26 52.26 0 0 1 4.53-4.59A57.47 57.47 0 0 1 37 3.51c1.06-.37 2.48-.83 3.55-1.18 1.68-.49 1.68-.49 5.07-1.25a57.13 57.13 0 0 1 5.77-.85c1.2-.1 2.79-.17 4-.23a60.94 60.94 0 0 0-30.6 9.93zM3.01 41.73l.2-.42.01.03-.21.39zM3.12 41.32l-.01-.04.13-.21-.12.25zM17.69 21.44c-.15.2-3.57 3.32-4 3.37a10.53 10.53 0 0 1 2-2.1c.65-.55 1.1-.9 1.86-1.45v.06h.22l-.06.1zM3.76 40.17l-.05.05.13-.25-.08.2zM82 7.26l.2.08 2.21.8-.34-.14c.34.13.8.29 1.14.43l-.45-.16.3.14A10.41 10.41 0 0 0 83 7.88l.81.28a13.46 13.46 0 0 0-2.22-.58l.42.13c-3.22-.76-6.88.8-9.75-1.84a9.33 9.33 0 0 1 1.41-.08C45.39 4.09 23.37 20 23.22 20.15a10.51 10.51 0 0 1 1.43-.81l-.47.54.49.26c.27-.14.64-.3.92-.41-2.63 1.8-2.63 1.8-3.21 2.94-1.92 1.19-2.16 1.35-2.82 2.24.23-.14.55-.3.8-.42-.11.1-12.68 10.12-12.69 10.12C10.26 26.85 34.17 7.4 52.29 4.9c-.16 0-.36.11-.51.16 4-.67 4-.67 4.6-.79l-.89.35C77.85 3.56 77.85 3.56 85 7.49c2 1.2 4.5 2.91 6.38 4.24-3.63-2.49-4.83-3-9.35-4.48zM2.29 45.12c-.07.29-.26.53-.34.82a3.13 3.13 0 0 1 .15-.32 3.63 3.63 0 0 0-.23.6 4 4 0 0 0 .41-.89c-.43 1-.69 1.74-.92 2.42.13-.3.14-.3.2-.33-.14.35-.52 1.29-.78 2.2a23.47 23.47 0 0 1 .79-2.21l.43-1c-.11.24-.25.56-.35.8l.35-.77a23.25 23.25 0 0 0-2 8.41 20.26 20.26 0 0 1 .66-4.77 15.36 15.36 0 0 0-.41 1.76.81.81 0 0 1 0-.2c0 .24-.07.47-.11.71s0 .31-.06.45a19.14 19.14 0 0 1 .31-2 6.5 6.5 0 0 1 .12-.73 4.88 4.88 0 0 1-.18.73 10.32 10.32 0 0 1 .19-1v.11a11.12 11.12 0 0 1 .43-1.68c-.1.39-.16.6-.23.9a24.35 24.35 0 0 1 1.56-4z" fill="#075368"/><path d="M.74 50.8C.46 52 .29 52.93.2 53.45c-.06.34-.07.37-.08.41a13.59 13.59 0 0 1 .21-1.58c.1-.54.3-1.05.44-1.58v.1zM.26 53.35a.28.28 0 0 1 0 .09v-.09zM.13 56.24l-.02.04.03-.22-.01.18zM4.65 78.15l-.01-.02-.01-.05.02.07zM4.65 78.12l-.01-.01-.01-.09.02.1zM5.33 80.32a.36.36 0 0 1 0 .09.25.25 0 0 1 0-.07zM4.61 78.72c0 .07 0 .14.08.22V78.71z" fill="#075368"/><path d="M4.6 77.82a24.81 24.81 0 0 0 .93 3 15.12 15.12 0 0 1-.63-1.64 12.87 12.87 0 0 1-.35-1.32c.15.62.2.81.31 1.18.14.45.14.45.19.59a.14.14 0 0 0 0-.06c.21.6.44 1.12.44 1.12s-.08-.2-.11-.3c0 .08.07.18.11.26l-.12-.31c-.29-.83-.47-1.38-.7-2.26l-.08-.34v.13zM7.4 62.34l.22-.46.02.04-.24.42zM7.36 61.89l-.04-.04.17-.23-.13.27zM21.62 39c-.21.45-4.41 4.36-4.75 3.82-.11-.18.74-1.36 2.1-2.54a20.62 20.62 0 0 1 2.2-1.63v.08c.15 0 .32 0 .44.14a.61.61 0 0 1 0 .13zM8.12 60.63l-.09.05.14-.27-.05.22z" fill="#075368"/><path d="M102.22 24.79zm0 0zm0 0zm5 5.87c-.1-.2-.24-.46-.35-.65-.1-.19-.2-.38-.31-.57l.73 1.36-.09-.16zm-13.26-6l.07.05c.82.31 1.59.73 2.4 1.08l-.43-.11 1.23.49-.57-.17.17.14a8.15 8.15 0 0 0-2.38-.49 9.71 9.71 0 0 0 .94.38s-3.14-.79-7.13-1.33a32.36 32.36 0 0 1-5-1c0-.17 0-.4-.06-.57a5.68 5.68 0 0 1 1.56-.13c-30.56-2.1-55.3 15.36-55.42 15.54A8.34 8.34 0 0 1 31 37.7l-.1.64h.53c0 .16 0 .37-.06.52a9.58 9.58 0 0 1 1.06-.39c-2.81 2-2.81 2-3.13 3.45-2.13 1.24-2.4 1.4-2.93 2.45.27-.13.65-.29.93-.39-2.45 2.46-5.46 4.31-7.84 6.87h-.05c-6.16 4.15-6.16 4.15-6.84 3.7 0-1.84-.05-2.4 2-5.07 2.33-3.07 5.67-5.16 8.07-8.17 6.82-8.53 17.76-11.13 25.87-17.81a17 17 0 0 1 3.17-1.16c6.09-2.22 6.09-2.22 6.28-2.23l-.44.28c1.39.07 2.64-.61 4-.72l-.59.23a45.37 45.37 0 0 1 5.07-.67l-.46.45c23.27-1.09 35-1.63 42 11.7v.05l1.28 2.77c.55 1.26 1.16 3 1.65 4.29-3.44-9.41-12-12.3-16.58-13.86zM8 66a5 5 0 0 0-.37.9c.08-.11.12-.25.19-.36-.18.44-.18.44-.13.59.15-.3.27-.61.41-.9-.37 1-.63 1.76-.89 2.57.18-.32.2-.33.36-.37a19.94 19.94 0 0 0-1 2.36 24.42 24.42 0 0 1 1-2.37l.5-1.05-.4.85c.16-.32.22-.45.41-.82-3.84 9.33-2.06 14.21.11 18.42-2.75-4.7-3.65-7.92-1.77-14.52a17.87 17.87 0 0 0-.66 1.91.57.57 0 0 1 .1-.19 4.84 4.84 0 0 1-.12.7c0 .16-.13.36-.18.51A15.16 15.16 0 0 1 6 72.08a5.64 5.64 0 0 1 0-.74c-.17.66-.17.66-.31.81a6.12 6.12 0 0 1 .08-1.06l-.12.12a5.1 5.1 0 0 1 .5-1.81c-.17.87-.17.87-.18.95a29.64 29.64 0 0 1 2-4.33z" fill="#075368"/><path d="M7.2 72c-.64 3.2-.64 3.2-.73 3.23a4.8 4.8 0 0 1 .07-1.65c.15-.78.27-.91.37-1s.2-.21.31-.67a.36.36 0 0 0 0 .11zM6.9 74.59zm0 0zM7.67 77.41l-.07.04.06-.23.01.19zM5.93 81.28c.22.59.22.59.53 1.37l-.55-1.44a.19.19 0 0 1 0 .07zM26.78 104.5l.14.09h-.15zM20.09 95.16l-.01-.02-.02-.05.03.07zM20.11 95.11h-.02l-.01-.08.03.08zM20.67 97v.07-.06zM19.43 96a.16.16 0 0 1 0 .06.65.65 0 0 0 0 .13.21.21 0 0 1 0-.06v-.14zM26.91 104.58l-.08-.05-.13-.08.21.13z" fill="#075368"/><path d="M20.1 94.85c.13.45.3.92.45 1.34a4.13 4.13 0 0 1 .35 1.23 3.69 3.69 0 0 1-.68-1.42 7 7 0 0 1-.22-1.11c.09.34.16.69.26 1a3 3 0 0 0 .19.51 3.21 3.21 0 0 0 .44.88c0-.11-.09-.17-.08-.27 0 .07.08.15.12.21 0-.09-.05-.19-.1-.28a16.93 16.93 0 0 0-.69-1.94l-.07-.3v.12zM26.59 104.38h-.01l-.26-.17-.07-.05.34.22zM20.2 98.75l.13.16a3.48 3.48 0 0 0 .22.28c-.13-.14-.25-.29-.37-.43zM21.5 99.48a8 8 0 0 1 1 1.38c.13.17.22.3.2.36a4.45 4.45 0 0 1-.79-.79 3.16 3.16 0 0 1-.41-.58s-.15-.35-.11-.42 0 0 .08 0zM20.66 99.3c.17.2.36.39.53.6l-.49-.53.14.14-.21-.25zM22.64 81.4l.18-.39.04.02-.22.37zM22.48 81.03l-.06-.03.17-.2-.11.23zM33.45 60.64a28.63 28.63 0 0 1-3.13 3s-1 .67-1.25.45.46-1.26 1.71-2.36a17.31 17.31 0 0 1 2.08-1.49c.15.2.42.12.59.25a.56.56 0 0 1 0 .13zM23.18 79.94l-.1.04.12-.23-.02.19z" fill="#075368"/><path d="M106.93 47.68h-.11.11zM113 58.5zm0 .06v-.1.06zm-15.57-9.75a4.2 4.2 0 0 0 .85.27c.24.36.24.36 1.09.77h-.42l1 .43-.46-.11.13.15a5.62 5.62 0 0 0-2.1-.32 5.92 5.92 0 0 0 .81.37c-3.46-.94-7.38.25-10.49-2.29l.23-.45a5.24 5.24 0 0 1 1.49-.3c-26.88-2-48 13.25-48.11 13.41A5.53 5.53 0 0 1 42.9 60l-.46.58c.3 0 .7.06 1 .1v.5a6.41 6.41 0 0 1 1-.3C42.06 62.66 42.06 62.66 42 64c-1.82 1-2.1 1.17-2.41 2.11a6.61 6.61 0 0 1 .85-.3c-.07.08-7.6 8.1-12.92 9.21-2.46-2.16 2.19-7.45 6.52-11.5.13 0 .34.14.45.06 1.64-1.11 2.51-3 4-4.22C43.31 55.23 50 54 54.34 49.2c2.19-2.37 5.54-2.84 8-4.82 1.59.53 2.59-.87 3.92-1.19.06.11.14.27.21.38 1.2-.11 2.31-.65 3.51-.77l-.31.3c1.46-.15 2.9-.41 4.36-.57a9.18 9.18 0 0 0-1 .57c8.55 1.06 17.15-2.3 25.69.26A20.72 20.72 0 0 1 112 54.78c-.75-2.48-.75-2.48-.47-3a8.84 8.84 0 0 1 1.37 3 20.52 20.52 0 0 1 .39 5.51v-.9c0 .16 0 .38-.06.55a4.53 4.53 0 0 0-.19-1 20 20 0 0 1 0 3.87l-.11.93c-.19 1.39-.56 3.22-.8 4.6l-.72 2.92c2-7.33 1.24-17.18-14-22.51zM24.26 84.32c-.26.51-.25.54-.25.68a1 1 0 0 1 .13-.23c-.05.13-.1.25-.14.38l.08.11c.15-.25.24-.51.37-.76-.25.7-.44 1.32-.67 2.14.18-.25.21-.29.41-.34a17.91 17.91 0 0 0-.91 2c.28-.67.52-1.19.94-2l.47-.89-.36.71c.15-.26.21-.38.39-.68-6.31 14.64 4.08 20.22 7.49 22l-2.71-1.38c-10.34-5.67-7.36-14.48-6.38-17.38-.25.58-.52 1.14-.75 1.72a.46.46 0 0 1 .16-.18c0 .13 0 .19-.11.55-.07.13-.17.32-.25.45a12 12 0 0 1 .42-1.81c-.08-.07-.08-.07-.16-.61-.17.64-.23.66-.34.7-.06-.16-.06-.16 0-.86v.11h-.12a3 3 0 0 1 .46-1.54l-.12.8a27.85 27.85 0 0 1 1.94-3.72h.05zM113 58.5zM113 58.56v-.06.1z" fill="#075368"/><path d="M24.33 89.13a16.77 16.77 0 0 1-.33 2.16s-.2.71-.35.48a3.16 3.16 0 0 1 0-1.26c.13-.67.28-.78.41-.89a.81.81 0 0 0 .34-.59v.1zM24.26 91.26zM25.68 93.32l-.09.05.06-.19.03.14zM23.07 100c0 .11.08.22.12.33a2.38 2.38 0 0 1-.12-.33z" fill="#075368"/><path d="M23.08 100.2c.06.1.1.16.12.16s0 0 0-.08a5.31 5.31 0 0 0 .27.53l-.39-.62zM23.48 100.85c.31.46.59.84.68 1a8.06 8.06 0 0 1-.7-1zM22 97.44a5.06 5.06 0 0 1 .36 1.22L22 97.39z" fill="#075368"/><path d="M23.07 100.19L23 100l-.1-.21.22.41zM48 110.34a.47.47 0 0 1 .17.07l-.18-.06zM46.63 110.5l-.16-.08h.01l.15.08zM46.43 110.26l.19.08-.18-.08zm0 0zm-.35-.18a1.46 1.46 0 0 0 .35.18h-.07l.12.06-.27-.11a.58.58 0 0 1-.15-.12zM47.52 110.16l-.12-.06.12.06zM48.28 110.62h-.01l-.09-.04.1.04zM47.32 110.51l-.08-.02-.06-.03.14.05zM46.67 109.87h.11l.13.07-.15-.07h-.06zM47.71 110.49l-.02.01-.1-.03.12.02zM46.7 110.45l.28.11c-.21-.09-.27-.11-.29-.1zM48.2 110.47l-.1.02.07-.03.03.01zM47.01 110.42l-.01.01-.19-.09h.01l.19.08zM42.89 103.54l-.01-.01-.01-.03.02.04zM42.93 103.51h-.02l-.01-.05.03.05zM43.26 104.75zM41.76 104.34V104.38zM46.85 109.86l-.08-.02-.09-.04.17.06z" fill="#075368"/><path d="M43 103.32c.16.43.4.82.52 1.27 0 0 .1.43-.06.37a1.38 1.38 0 0 1-.52-.81 3.32 3.32 0 0 1-.14-.76c.08.21.09.44.16.66a1.87 1.87 0 0 0 .07.22.29.29 0 0 0 .07.1c.06.24.29.54.4.55 0-.07-.12-.17 0-.19l.11.13c0-.06 0-.14-.06-.19 0-.21 0-.27-.46-1.22a1.29 1.29 0 0 1 0-.19v.07zM46.47 109.9l-.21-.15-.01-.04.22.19zM41.58 106.5s.08.07.13.13a2 2 0 0 0 .15.15c-.11-.07-.2-.18-.31-.26zM43.37 106.52a.89.89 0 0 1 .27.19l.3.53c.09.16.21.42.05.51s-.67-.43-.68-.44a.83.83 0 0 1-.2-.41 1.93 1.93 0 0 1 .09-.33.11.11 0 0 1 .12-.06zM42 106.83c.13.13.31.2.42.36l-.42-.3.13.07-.13-.16zM44.73 94.72l.1-.25.05.01-.15.24zM44.47 94.5l-.07-.02.13-.14-.06.16zM49.85 80.66c0 .32-1.93 2-2.07 2.11s-.92.49-1.08.21.17-.89 1-1.66a10 10 0 0 1 1.5-1c.1.09.1.09.35.15s.26.1.26.2zM105.33 85.49zM44.97 93.79l-.1.03.07-.15.03.12zM105.32 85.51l.06-.1-.06.12zM100.71 71.63zm-42 41.11zm45.9-33.47zM47.07 96.43a.91.91 0 0 0-.07.14c0 .09.11.2.15.28.05-.1.11-.23.15-.33s0 0 0 .25-.1.39-.25 1l.32-.08c-.31.51-.31.51-.51.89.28-.5.31-.55.61-1l.32-.54-.18.33.19-.37a18.51 18.51 0 0 0-.71 1.79C42.63 112.47 63 117 82.76 106.67s24.92-27.83 9.64-32.49a3.25 3.25 0 0 1 .61.17v.33l.31.19H93l.62.3h-.31a.7.7 0 0 0 0 .12 4 4 0 0 0-1.48-.15l.19.25s-2.37-.36-3.63-.53A5 5 0 0 1 86 74c0-.58 0-.73 1.26-1-9.87-.83-20.2 1.88-30.72 8.07 0 .1 0 .24-.08.35.79-.4.79-.4 1-.43 0 .14-.06.33-.09.48a1.18 1.18 0 0 1 .68.28c-.05.09-.11.2-.15.29a2.17 2.17 0 0 1 .72 0 4.77 4.77 0 0 1-.86.43 1.77 1.77 0 0 0-.1 1.53c-1 .49-1 .49-1.37 1l.13.32.39.07c-.75.32-2 .85-3.78 3.35-3.9 1.84-3.9 1.84-5.12 1.9-2.72-2.94 1.88-6.76 3.36-7.86l.23.2c1.05-.78 1.44-2.08 2.37-3 3-2.86 7.07-4.27 10.28-6.88 2.4-2 2.5-2.33 2.55-2.52.62-.15.62-.15 3.31-1.66 0 .09.11.22.15.31.91-.18 1.5-1.16 2.55-1v.3c.76 0 1.45-.39 2.22-.37l-.28.14c1.06-.06 2.11-.29 3.17-.26a3 3 0 0 0-.57.44c.41.11.41.11 2.35-.14a44.63 44.63 0 0 1 11.6-.2c3.81.53 3.81.53 5.63 1.17v.3c2.2.94 5.52 2.36 7.28 7.21-.09-.67-.09-.67-.22-2.1.48-.56.48-.56.71-.63a4.62 4.62 0 0 1 1.25 2s-.17 3.62-.26 4.34a1.85 1.85 0 0 0-.14-.65l-.31.11-.14-.34-.33-.1a15.7 15.7 0 0 1-.58 5.44 2.21 2.21 0 0 1 .45-.55c0 .92-.07 1-.91 3l.06-.17a20.1 20.1 0 0 1-1.91 3.19l.17-.27.17-.3a3.06 3.06 0 0 1-.42.46c.31-.6.31-.6.48-1a31.82 31.82 0 0 1-3.62 5.18 2.62 2.62 0 0 0 .25-.22c-.48.57-.7.82-1.34 1.49l-.27.28c-.71.72-1.69 1.63-2.42 2.32a55.6 55.6 0 0 1-4.34 3.7c-1.44 1-1.44 1-4.27 2.8-1.4.85-1.4.85-4.26 2.34-1.93.91-1.93.91-4.37 1.94-1.51.59-1.51.59-4.63 1.59a50.94 50.94 0 0 1-5.08 1.25l-.69.13-1.68.28h-.23.11c-1 .13-2 .26-3.64.37h-3.29 1.65-1.91l-1.33-.1C43 110.71 45.06 102.52 46.59 99.09a2.24 2.24 0 0 0-.57 1.24h-.21a8.09 8.09 0 0 1 .28-.83h-.11a3 3 0 0 0-.15-.31l-.11.3h-.31v-.34l-.18.09a1 1 0 0 1 .32-.9v.31A15.77 15.77 0 0 0 47 96.43h.06zM104.63 79.27zM48.24 110.86l-.05-.01-.01-.02.06.03z" fill="#075368"/><path d="M48 99.16a4 4 0 0 1-.19 1.26c-.07.17-.26.45-.41.29a1.18 1.18 0 0 1-.07-.7.62.62 0 0 1 .36-.54.43.43 0 0 0 .31-.36zM48.19 100.36zm0 0zM50.01 101.3l-.12.04.06-.11.06.07zM60.52 112.88l1.16-.09-.76.06 1.21-.1-1.09.08c1.09-.08 1.76-.14 2.85-.27h-.2l1-.13-2.61.31h-.48l-1.08.08zM53.65 112.29l-.01.01-.06-.03.07.02zM52.93 112.14l.5.09-.65-.12.15.03zM48.47 110.92l-.15-.08.15.08zM52 112.27a4.06 4.06 0 0 0 .7.08l-.23-.07h-.18c.31 0 .61.16.93.16-.2-.08-.43-.06-.63-.14 1.26.22 1.26.22 1.65.26h-.18c1 .13 2.32.3 4.42.42a28.43 28.43 0 0 1-4.9-.23h.09c-.28-.06-.56-.08-.84-.12h.39c-.42-.11-.86-.16-1.28-.27.42.08.58.11.78.13-.3-.08-.61-.12-.91-.18H52zM105 86.14l.08-.13v.07zM45.64 106.2zm0 0zm0 0a1.77 1.77 0 0 0 0 .23.62.62 0 0 1 0-.24zM45.5 106.42c0 .08.1.15.12 0a1.07 1.07 0 0 0 .08.37l-.22-.4zM45.72 106.84l.36.64a2.44 2.44 0 0 1-.37-.66zM45.05 104.62c.1.18.12.21.13.31a2.25 2.25 0 0 1 0 .49l-.14-.84z" fill="#075368"/><path d="M45.49 106.42l-.07-.12-.05-.14.12.26zM69.73 103.76h.07-.1zM68.16 104.71l-.07-.01.03-.02.04.03zM68.29 104.51zm0 0zm-.14 0h.14-.14v-.06zM69.53 103.78l-.01.01h-.04l.01-.01h.04zM69.62 103.96l-.01.01-.04-.01.02-.01.03.01zM68.85 104.33l-.06.03h-.03l.09-.03zM69 103.91h.1-.1zM69.24 104.11l-.02.01-.05.02.07-.03zM68.37 104.6zm0 0zm0 0zM69.75 103.81l-.11.08.11-.09v.01zM68.64 104.41l-.01.01-.07-.02h.01l.07.01zM69.1 101.98l-.01.01-.01-.01h.02zM69.14 101.96l-.02.01v-.01h.02zM69.16 102.25zM67.64 102.63zM69.23 103.81l-.06.02h-.03l.09-.02z" fill="#075368"/><path d="M69.21 101.9l.19.11s.06 0 .06.08-.09.16-.23.18-.24 0-.28-.1a.28.28 0 0 1 0-.19v.15h.06c0 .08.25.07.27 0h.1c.1-.1 0-.15-.16-.23zM68.8 104.05l-.04-.04.04-.05v.09zM66.48 103.71h.07a.13.13 0 0 0 .08 0 1 1 0 0 1-.18 0zM68.46 103a.75.75 0 0 1 .2 0c0 .21-.06.29-.29.44s-.47.07-.48.06a.14.14 0 0 1 0-.16 1.85 1.85 0 0 1 .52-.32zM66.73 103.74h.2c.07 0 0 0 0 0H66.69zM74.62 105.13l-.04.01v-.03l.04.02zM69.82 100.08l.01-.05.04.01-.05.04zM69.51 100.06l-.07-.01.07-.03v.04zM67.86 95.75c.1.17-.4.66-.54.76a1.25 1.25 0 0 1-.56 0c-.31-.09-.32-.45 0-.71a1.92 1.92 0 0 1 .61-.33 1 1 0 0 0 .28.12.54.54 0 0 1 .24.14zM90.38 97zM69.7 99.9l-.07.01v-.03l.07.02zM90.36 97z" fill="#075368"/><path d="M85.12 92.6h-.07.07zm-12.83 11.6zm3.46.18l.28-.08H76l-.21.07zm10.26-9zm0 0zm-13.45 4.8h.31c.09.07.09.07.4 0a1.71 1.71 0 0 0-.3.15l.33-.15h.13-.08.11a1.8 1.8 0 0 0-.46.82c-.28 1.47 2.49 1.82 5.16.16 3.25-2 2.77-4.68 1.17-5.05h.09a1.45 1.45 0 0 1-.17.18v.1l-.11.08.07.08h-.1l-.06.08a.64.64 0 0 0-.54.28h-.09a.27.27 0 0 0-.13.13 3.13 3.13 0 0 1-.44 0c-.3-.09-.15-.89.56-1.3a10.25 10.25 0 0 0-6.67 1.42l.07.07a.59.59 0 0 0 .26-.07s.56.36.68.65h.24v.09h-.2a2.31 2.31 0 0 0 .62.68h-.21c.08.22.31.22.46.34h-.3a.55.55 0 0 0 .17.31h-.26a.6.6 0 0 0 .08.08c-3.32-.15-3.32-.15-4-.46-.14-.07-.14-.07-.36-1.53.42 0 .42 0 .45-.34h.1a1.27 1.27 0 0 0 .19.13h.09A1.24 1.24 0 0 1 70 96a10.12 10.12 0 0 1 2.33-2.16c.46-.33.38-1 .74-1.33a.35.35 0 0 1 .26-.07l.13-.12a.83.83 0 0 1 0-.22.56.56 0 0 0 .56-.39l.07.1c.34 0 .33-.36.55-.49a.37.37 0 0 0 .05.23c.39 0 .48-.73.93-.51l-.11.19c.14.2.29.16.81-.09h.1a.3.3 0 0 0-.08.18 8.51 8.51 0 0 0 1 0c-.24.26-.24.26-.29.36.1.11.15.16.43.1a39 39 0 0 1 5.11-.28v.1c.22 0 .39-.13.59-.17a3.78 3.78 0 0 0 .54.4.54.54 0 0 0-.11.18 1.48 1.48 0 0 0 1.17.12.31.31 0 0 0-.14.16.5.5 0 0 1 .21 0 1.66 1.66 0 0 0 0 .22h.1a.44.44 0 0 0-.15.12c.91 1.13.91 1.13 1.07 1.81.73-1.87 1.9-1.76 2.43-1v.14c-.32.18 0 .53 0 .79a.47.47 0 0 0-.24 0l-.07.1a1.22 1.22 0 0 0 .15.17.39.39 0 0 1-.21 0 .46.46 0 0 0-.15.16.41.41 0 0 1 0 .19c-.14-.13-.14-.13-.39.39 0-.1 0-.21-.08-.31-.19.19-.49.15-.7.3l-.1-.09a2.93 2.93 0 0 1-.59.11 5.12 5.12 0 0 1-.42 1.86 6.31 6.31 0 0 1 .77-.38c.36.17.36.17.37 1h-.06a2.67 2.67 0 0 1-1.12 1.14.7.7 0 0 1 .06-.09v-.1l-.39.22a.3.3 0 0 1-.08-.08l-.24.06a3.58 3.58 0 0 1-.09-.35 10.31 10.31 0 0 1-1.35 1.64c.51-.1.57-.06.69 0-.08.42-.08.42-1.25 1.83l-.2-.06a2.23 2.23 0 0 0-.6.39.57.57 0 0 0 0-.13c-.1 0-.18.07-.28.09v-.1a1.6 1.6 0 0 1-.23.1c.13-.13.15-.16.1-.36-.09 0-.17.11-.26.14.17-.17.17-.17.2-.23l-.2.06c0-.07 0-.07.21-.26-.47.33-1 .58-1.43.94a1.27 1.27 0 0 1 .54.15c.08.92-1.85 1.8-2.85 1.68l.07-.1a1.63 1.63 0 0 0-.61.1 1.65 1.65 0 0 0 .67-.48h-.22a2.09 2.09 0 0 0 .39-.16l-.09-.06c.18-.15.42-.22.57-.41 0 0-3.64 1.12-4 1.19a1.4 1.4 0 0 0 .2-.16H73.5a4.15 4.15 0 0 0-.81-.1c-.2 0-.46-.12-.65-.18h.36a.44.44 0 0 1-.2-.08H71.99l-.24-.11s-.09-.1-.12-.15h-.1c-1.56-1.13-.24-2.79 1.19-3.61l-.43.18h.1l-.23.07.17-.14-.76.1a.35.35 0 0 1-.2 0 4 4 0 0 1 1-.41h.07zM86.01 95.36v-.01.01zM86 95.37z" fill="#075368"/><path d="M75.75 104.38l.21-.07H76h-.28zM69.21 104.33l-.04.02.02-.03.02.01zM74.28 100.17h.11a1.17 1.17 0 0 1-.37.11.4.4 0 0 1-.22 0 .8.8 0 0 1 .3-.08h.17zM74.7 100.14zM71.81 105.83c.33 0 .33 0 .37-.06s-.06-.13-.13-.16c.12 0 .26 0 .37-.08s0 0-.14 0h-.15a6.85 6.85 0 0 0 .88-.23v-.07c.63-.13 1.59-.34 1.43 0a1.77 1.77 0 0 1-.83.59 9.78 9.78 0 0 1-1.53.26 1.73 1.73 0 0 0 .37-.11c-.15-.1-.27.16-.41 0 .24 0 .25-.09.26-.12h-.46zM70.97 104.28l-.02.02.02-.04v.02zM70.82 104.22l.13.02-.17-.01.04-.01zM69.33 104.29l-.02-.03.01-.01.01.04zM69.77 105.09a.64.64 0 0 0 .41-.21h-.06c.11 0 .31.11.32 0s-.1 0-.14 0h.4a.12.12 0 0 0 .08 0v-.09c.73.07.73.07.82.13a.27.27 0 0 1 .09.18c0 .08-.08.13-.08.21-.15.09-.29.21-.45.29a1.25 1.25 0 0 1-.28.1 5.71 5.71 0 0 1-1 0c.08-.06.08-.07.08-.09s-.17 0-.26 0l.21-.08c0-.15-.17-.13-.25-.2H69.8zM75.44 104.72l-.02.02-.05.02.07-.04zM74.76 105.03v.01l-.07.02.07-.03zM75.19 104.83l-.05.03-.02-.03h.07zM90.28 97.25l.08-.06zM75.31 104.78zM71.09 101.87L71 102l.15-.11zM70.83 102h.12a.93.93 0 0 0-.14.14v-.09zM70.81 102.12a.43.43 0 0 1-.06.17.24.24 0 0 1 .06-.18zM71.14 101.56s.06 0 0 0l-.21.16.17-.21zM70.83 102z" fill="#075368"/><path fill="#26a9e0" d="M70.47 111.17l.17-.05-.2.05h.03z"/><path d="M75 109.59h-.06l1.24-.46-.35.14-.83.3zm-18.5 3.63h.82-.8zm0 0h-1.11 1.11zm-1.11 0zm-7.39-.46c.74.13 2.26.31 3.74.41H55.1a58.3 58.3 0 0 0 8.61-.76l.84-.15h-.16.31c.69-.13 3.23-.66 4.25-.92l2.32-.62-1 .32a73.87 73.87 0 0 0 16.53-6.93c-2.09 1.23-2.09 1.23-3.85 2.16.21-.11.51-.24.73-.34-1.32.71-1.67.9-2.64 1.35 1.25-.57 1.25-.57 1.73-.77l-.32.18c6.81-3.2 9.59-6 9.61-6l-.26.18A53.58 53.58 0 0 0 96.55 97l-1.07 1 .29-.24-.5.45-.09.08-.28.24.49-.41c-.5.47-.5.47-1.2 1.06l.3-.23-.25.22.26-.2-.29.25c1-.84 1.22-1.05 1.66-1.44l-.34.33c1-.92 1.23-1.15 2.12-2.05l.4-.42 1.32-1.45a54.08 54.08 0 0 0 4.63-6.05l.47-.72c-9.75 15.08-36.89 28.91-60.23 24.64 1.11.25 2.6.49 3.71.7z" fill="#26a9e0"/><path d="M75 109.59c.43-.15.79-.29 1.18-.44l-.23.09-1 .37h.06zM60.67 113.14c.58-.06 1.15-.17 1.73-.21-.06 0-.13 0-.67.1.51 0 1-.14 1.51-.2l-1.07.16a35.31 35.31 0 0 0 7.6-1.64 30.52 30.52 0 0 0-3.41.76c-1.19.25-1.89.39-3 .57h.36a53.3 53.3 0 0 1-3.08.45c.46 0 .9-.11 1.36-.16l-1.31.17 1.21-.14c-.33.05-.81.1-1.28.15zM52.65 113.29a27.28 27.28 0 0 0 4.25 0c-.51 0-2.33 0-4.21-.06-.88 0-1.43-.08-2.25-.17h.45-.35l2.11.19zM73.67 110.12l.05-.02-.28.1.23-.08zM70.82 111.05l.28-.08-.29.08h.01zM72.57 110.5l.15-.06-.29.09.14-.03zM73.11 110.31l.12-.04-.16.04h.04zM26.38 104.21l.2.08-.21-.09zM27.59 105.07l.22.1-.26-.12.04.02zM26.41 104.47a4.73 4.73 0 0 0 .6.29l-.18-.08h.05l-.53-.26h.06zm.47.23h-.05zm.05 0a1.89 1.89 0 0 0 .21.09l-.21-.09zM25.7 103.91l.18.08-.02-.01-.17-.08.01.01zM27.32 104.67l.14.06-.02-.01-.14-.05h.02zM27.41 104.87h.03l-.12-.04.09.04zM25.22 103.72l.34.17c-.11-.05-.2-.11-.31-.15zM27.2 104.69l-.03-.02-.06-.01.09.03zM27.58 105l.3.12a2.69 2.69 0 0 0-.31-.12zM26.98 104.5l-.13-.07-.06-.04.19.11zM27.02 104.72l.27.12-.02-.01-.26-.12.01.01zM25.07 103.62h.03l-.15-.07.12.07zM25.05 103.65l.4.22-.57-.32.17.1zM64.62 105.3l.23-.07-.27.05.04.02zM110.2 75.58v-.07.07zM110.23 75.5l.1-.27c-.06.17-.09.23-.1.26z" fill="#26a9e0"/><path d="M70.59 102.94h-.07c1.46-.54 1.46-.54 1.66-.6l-.53.2c-.16.06-.53.2-1.06.38zm-24.36 4.42h1.08-1.05zm0 0h-1.44.29-.29 1.42zm-1.42 0zm-25.67-8.1c5.28 4.66 11.73 7.11 20.9 7.93l1.35.13 2.5.1h.49c3.66 0 3.66 0 11.27-.81l1.11-.17h-.22l.42-.06c.8-.13 4.14-.77 5.62-1.12 2.81-.68 2.81-.68 3-.7l-1.19.43a107.54 107.54 0 0 0 22-8.95c-1.7.95-3.34 2-5.08 2.92l1.22-.52a26.54 26.54 0 0 1-3.56 2 12 12 0 0 1 2.43-.93l-.4.29c8.88-3.65 12.53-7.32 12.83-8.43l-.47.24a76.17 76.17 0 0 0 6.22-4.9c-.44.4-.78.89-1.22 1.29h-.06l-.14.12c-.11.1-.24.24-.34.34.23-.21.55-.47.79-.67a12.85 12.85 0 0 1-1.72 1.74l.81-.6-.74.7c.25-.2.6-.44.86-.62l-.32.36c.68-.59 1.38-1.16 2.07-1.73l-.33.49a50.25 50.25 0 0 0 12-16.78c-1.29 3.28-1.29 3.28-1.36 3.43a22.46 22.46 0 0 0 1.69-3.64l-.13.41a26.81 26.81 0 0 0 1.07-3.83v-.14c.37-2.25.73-5.28 1-7.56-2.59 29.34-67.27 61.1-95.14 38.43l.86.77z" fill="#26a9e0"/><path d="M70.59 102.94c.8-.27 1.35-.49 1.59-.58l-.32.1-1.34.5h.07zM28.6 105.31l-.02-.01-.09-.03.11.04zM51.38 108.13a15.23 15.23 0 0 1 2.34-.26 3.61 3.61 0 0 1-.92.17c.69 0 1.35-.21 2-.26a13.91 13.91 0 0 1-1.46.26c3-.44 8-1.18 10.12-2.32 0-.09 0-.09.19-.19-.3 0-.86.07-4.52.86-1.81.38-2.67.55-4 .79h.47c-1.73.34-2.67.5-4.16.7a14.78 14.78 0 0 0 1.76-.18 6.28 6.28 0 0 1-1.72.25h1.56a14.3 14.3 0 0 1-1.69.22zM36.52 107.05l-.04-.01-.18-.04.22.05zM36 106.95l-.83-.13-.23-.03 1.06.16zM28.48 105.24l.3.11-.31-.12.01.01zM36 107.46c.48.08 1 .13 1.45.21a3.66 3.66 0 0 1-1-.09c.82.15 1.64.23 2.46.39h-.34c5.31.52 6.32.31 8 0-2.68-.2-2.68-.2-5.46-.32-1.26-.06-2-.11-3-.22a4.18 4.18 0 0 0 .51.1 19.84 19.84 0 0 1-2.54-.27 12.21 12.21 0 0 0 1.21.2c-.06 0-.06 0-.72-.07l-.65-.09.31.06h.08a1.84 1.84 0 0 1 .59.13c-.12 0-.18.06-.93 0zM68.9 103.79l.07-.03-.37.13.3-.1zM65.09 105.11l.38-.11-.01-.01-.38.12h.01zM67.44 104.32l.19-.09-.39.12.2-.03zM109.85 76.42v-.1a.25.25 0 0 0 0 .07zM68.16 104.05l.15-.05-.21.02.06.03zM15.6 90h.24-.24zM16.43 91.4l.26.1-.28-.13.02.03zM15.19 90.68a2.1 2.1 0 0 0 .68.31l-.2-.09h.08a3.29 3.29 0 0 1-.62-.28h.06zm.56.24zm0 0A1.34 1.34 0 0 0 16 91l-.28-.1zM14.82 89.68l.2.08-.02-.01-.19-.08.01.01zM16.56 90.55l.15.05-.01-.01-.16-.06.02.02zM16.44 90.98l.04-.01-.15-.03.11.04zM14.2 89.57a1 1 0 0 0 .17.1l.2.08-.19-.09-.16-.07zM16.34 90.66l-.03-.03-.08.01.11.02zM16.47 91.31a1.37 1.37 0 0 1 .36.11 2.08 2.08 0 0 0-.35-.11zM16.2 90.33l-.09-.12-.07-.04.16.16zM15.96 90.87l.31.12-.03-.02-.29-.11.01.01zM4.86 79.82v.05-.05zM5.25 80.7v-.01.01zM14.07 89.41h.04l-.18-.07.14.07zM4.46 78.92c.08.2.14.33.23.51l.15.32s-.06-.11-.08-.16c.06.13.14.27.19.41 0 0-.11-.21-.31-.67a7.29 7.29 0 0 0 .36.76 1.1 1.1 0 0 0-.1-.21 8.13 8.13 0 0 1-.43-1v-.06zM13.93 89.56l.44.24-.6-.37.16.13zM8.05 85.38a3 3 0 0 0 .33.35 2.29 2.29 0 0 1-.24-.26.44.44 0 0 0-.09-.1zM7.18 83.74a9.83 9.83 0 0 0 2.14 2.49 6.28 6.28 0 0 0-.78-1c-.51-.57-.79-.89-1.2-1.4-.14-.15-.16-.17-.18-.18zM8.59 85.93l-.07-.05.35.31-.06-.06c-.14-.14-.3-.28-.44-.43l.22.23zM57.37 91.73l.26-.08-.31.04.05.04zM110.7 58.91a.17.17 0 0 0 0-.08v.09zM110.72 58.82c0-.09.07-.22.09-.31-.07.19-.1.27-.09.3z" fill="#26a9e0"/><path d="M63.93 88.89h-.08a19.32 19.32 0 0 1 1.82-.66l-.52.21c-.18.06-.58.21-1.22.42zm-26.66 4.5h1.16-1.13zm0 0h-1.58a1.73 1.73 0 0 0 .32 0 1.4 1.4 0 0 0-.32-.06c.51 0 1 .06 1.54.07zm-1.54-.07zM3.58 76.73c2.6 6.45 9.37 14.53 27 16.34l1.44.2 2.71.14h1-.44c1.63 0 1.63 0 12.26-.72l1.22-.17h-.24.46c1.46-.23 5.55-1 6.16-1.16 1.08-.23 2.14-.56 3.25-.71-.39.17-.91.38-1.3.53 12.38-4 12.38-4 24.39-9.68-1.9 1-3.66 2.3-5.59 3.28l1.38-.53a21.94 21.94 0 0 1-3.9 2.27 8.73 8.73 0 0 1 2.78-.93l-.44.36c2.87-1 10.47-3.83 14.6-9.31l-.5-.3-.57.23c1.51-1.06 1.51-1.06 7-5.39-.73.67-1.32 1.47-2 2.2a7.77 7.77 0 0 1 .91-.69 11.2 11.2 0 0 1-1.52 1.74l.57-.29-.5.5c.29-.23.7-.51 1-.71l-.35.5c.41-.37.41-.37 2.38-1.93-.08.18-.19.42-.28.6 3.92-4 6.75-6.92 8.08-10l-.21-.53a43.3 43.3 0 0 0 4.94-8.12c-.24.68-.24.68-.89 2.93l.4-.41-.26.53-.12.32c.55-1.08.55-1.08 1-1.44.76-1.66.77-1.71 1.11-2.58l-.1.46a27.57 27.57 0 0 0 .48-14.67 27.29 27.29 0 0 1 1 4c0-.17 0-.4-.06-.57l.1.55c-.06-.32-.13-.75-.19-1.08l.14.61c-.08-.33-.17-.77-.25-1.1 0 .17.1.38.14.54 0-.17-.1-.39-.15-.56V42c-.69-2.24-1.76-5.19-2.6-7.37l-.5-1.14c.94 2.37 3.17 7.92-.77 16.95-14.86 34-90.39 57.88-104.49 24.94l.49 1.35z" fill="#26a9e0"/><path d="M63.93 88.89c.66-.21 1.2-.41 1.74-.63l-.35.11-1.47.55h.08zM17.8 91.42l-.01-.03-.1-.04.11.07zM42.66 95c.87 0 1.7-.49 2.59-.28-.11.07-.19.12-1 .24.77 0 1.5-.27 2.26-.29a11.23 11.23 0 0 1-1.63.34c6.27-1 9.42-1.51 11.47-3.07-.2-.08-.42-.16-5 .82-2.12.46-2.93.63-4.4.9h.5c-2 .43-3 .62-4.61.85.66.15 1.29-.18 2-.18a5.07 5.07 0 0 1-1.92.32h1.7a9.19 9.19 0 0 1-1.88.27zM26.64 93.11l-.04-.03-.19-.05.23.08zM26.09 92.97l-.92-.13-.25-.03 1.17.16zM17.71 91.28l.32.14-.33-.15.01.01zM25.74 94c.53.1 1.06.12 1.59.24-.16 0-.16 0-1.13-.06.89.19 1.79.26 2.67.5l-.41.08c6.21.56 6.63.44 8.95-.26a35.27 35.27 0 0 0-5.88-.59c-1.47-.07-2.21-.12-3.29-.22.18.06.37.09.54.14a6 6 0 0 1-1.67-.11H27l-1-.13c.41.22.89.12 1.32.24v.06a13.35 13.35 0 0 1-1.53-.2 1.15 1.15 0 0 0 .27.07h.14c.44.06.52.07.63.19-.15.08-.24.13-1.08 0zM62.1 89.96l.06-.04-.4.16.34-.12zM57.89 91.49l.42-.13h-.01l-.42.13h.01zM60.48 90.57l.21-.11-.43.12.22-.01zM110.31 59.9a.42.42 0 0 0 .06-.12l-.07.09zM61.27 90.26l.17-.06h-.23l.06.06zM5.73 80.94l.37.57c-.12-.19-.26-.39-.38-.59zM6.7 82.34c-.22-.29-.39-.53-.6-.83l.13.2a.6.6 0 0 1-.11-.14l.59.78zM6.73 82.38c.46.59.85 1 1.1 1.28-.42-.46-.78-.88-1.13-1.32zM4.83 79.51l-.46-.93c-.07-.13-.13-.26-.19-.39s-.13-.27-.18-.41l.83 1.73zM5.94 81.33l.17.23-.36-.51.19.28zM11.35 70.4h.05a1.11 1.11 0 0 0 .19 0c-.14 0-.25-.09-.24-.06zM11.61 72.06l.25.08-.27-.11.02.03zM10.52 71.35a1.45 1.45 0 0 0 .63.28l-.15-.08h.1a2.76 2.76 0 0 1-.6-.25h.06zm.55.21zm0 0zm0 0zm0 0zm0 0zm0 0zm0 0zm0 0zm0 0zm0 0zm0 0zm0 0zm0 0zm0 0a1.25 1.25 0 0 0 .25.09 2.14 2.14 0 0 0-.27-.09zM10.59 70.17l.18.07v-.01l-.19-.08.01.02zM12.16 70.99l.14.05-.01-.01-.14-.06.01.02zM11.82 71.54l.06-.02-.16-.02.1.04zM9.9 70.12a1.43 1.43 0 0 0 .15.11H10.07l-.19-.08zM11.86 71.16l-.02-.03-.1.01.12.02zM11.7 71.94s.13 0 .35.09c-.11 0-.37-.12-.36-.08zM11.87 70.77l-.06-.14-.06-.03.12.17zM11.33 71.46l.29.11-.02-.02-.28-.1.01.01zM.85 58.96l-.01-.04.01.04zM.84 58.88v-.02l-.03-.06.03.08zM1.64 61zM1.42 61.7a.62.62 0 0 0 .1.22l-.09-.2zM9.83 69.96l.05-.02-.19-.05.14.07z" fill="#26a9e0"/><path d="M.8 58.69c.23.65.52 1.28.76 1.92a1.73 1.73 0 0 1 .14.31l-.09-.15c0 .14.13.25.15.39a3 3 0 0 1-.38-.71c-.05 0-.05 0-.21-.48C1 59.64.9 59.2.78 58.81a6.2 6.2 0 0 0 1 2.43c0-.13-.31-.81-.42-1.07a16.16 16.16 0 0 1-.69-1.78l.09.32zM9.59 70.16l.39.23-.53-.36.14.13zM3.66 66.47a2.69 2.69 0 0 0 .32.27 1.1 1.1 0 0 1-.21-.2c-.09-.1-.11-.13-.13-.13zM3.46 64.7c.12.55 1.43 2.42 1.85 2.36a1.46 1.46 0 0 0-.31-.63c-.4-.57-.86-1.09-1.28-1.65-.16-.13-.18-.15-.23-.15a.17.17 0 0 0 0 .07zM4.23 67h-.09l.4.27v-.05a1.38 1.38 0 0 0-.28-.24 1 1 0 0 1-.26-.24l.21.22zM49.92 72.42l.25-.08-.29.03.04.05zM102.5 41.35v-.08.08zM102.5 41.26l.06-.3c-.07.18-.09.26-.07.29z" fill="#26a9e0"/><path d="M100.41 23v-.1a.29.29 0 0 1 0 .09zM56.05 69.61h-.07a16 16 0 0 1 1.7-.61l-.54.21c-.18.07-.55.2-1.09.37zm-24.67 4h1.07a10.26 10.26 0 0 1-1.05 0zm0 0h-1.45.31a.8.8 0 0 0-.28-.07c.6.06 1 .08 1.4.09zM30 73.47zM.47 49.48a.13.13 0 0 0 0 .06v-.3.24zm.09-.65a20.74 20.74 0 0 0-.21 2.09c.07-.87.07-.87.13-1.48v.36c0-.4.07-.61.12-1v-.15.19zm0-.3C-.89 58.86 4.79 70.76 25.24 73.2l1.3.21 2.47.16h.48c3.78.07 7.53-.38 11.29-.55l1.12-.14h-.22.42c1.1-.16 4.93-.85 5.71-1l3-.61-1.21.53c11.65-3.86 11.65-3.86 22.86-9-1.78 1-3.4 2.2-5.21 3.12l1.32-.47a17.6 17.6 0 0 1-3.57 2.2 7 7 0 0 1 2.67-.81l-.39.37c12.24-4.11 13.53-8.9 13.54-8.95l-.53-.26-.49.19A81.32 81.32 0 0 0 86.61 53c-.51.49-.8 1.16-1.34 1.64h-.06l-.12.1-.38.44a5.78 5.78 0 0 1 .85-.62 7.42 7.42 0 0 1-1.33 1.68l.59-.27c-.11.12-.24.29-.34.41a5.88 5.88 0 0 1 .88-.59l-.29.49c.44-.4.44-.4 2.3-1.83l-.17.59c4.33-4.61 6.72-7.15 7.38-9.67l-.42-.35a42.16 42.16 0 0 0 4.77-7.68c-.58 1.88-.58 1.88-.2 2.54 0 .15-.13.36-.19.51.61-1.27 1.55-2.37 2.08-3.69 0 .13-.05.3-.06.43.91-3.57.91-3.57.82-6.05h-.51a17.45 17.45 0 0 0-.34-7.72c1.28 2.78 1.28 2.78 1.46 3.59a5.28 5.28 0 0 0 .05-1.05c.06.16.14.38.19.55a8.78 8.78 0 0 1-.21-1l.2.51A15.66 15.66 0 0 0 98 18.28a14.25 14.25 0 0 1 1 1.51 17.56 17.56 0 0 0-2.39-3.08l-.38-.37-1.88-1.73-2.87-2.38c11.16 8.68 7.16 25-9.51 38.77C51.26 76.38-2.47 78.86.68 48l-.08.5z" fill="#26a9e0"/><path d="M100.41 23a.29.29 0 0 0 0-.09v.05zM56.05 69.61c.82-.25 1.39-.48 1.63-.58l-.33.09-1.35.52h.07zM13.14 71.91l.01-.04-.1-.03.09.07zM.84 47.12v.22a13.4 13.4 0 0 0-.25 2 1.14 1.14 0 0 0 0-.27c.06-.69.1-1 .15-1.33 0-.17.06-.48.14-.89v.23z" fill="#26a9e0"/><path d="M.71 48.09a.34.34 0 0 1 0-.1v.08zM.86 48.16l.02-.18v-.09l-.02.27zM36.07 75.62a15.57 15.57 0 0 0 1.76-.2c.6-.09.6-.09.68-.06-.12.09-.2.14-1 .26.71 0 1.37-.26 2.08-.27-.45.33-1 .22-1.51.34 7-1.16 9.08-1.52 10.86-3.07-.18-.09-.42-.23-4.68.68-2.78.59-2.89.62-4.12.86h.46c-1.91.44-2.85.62-4.36.85.63.21 1.21-.18 1.83-.15-.56.36-1.21.21-1.82.32.53 0 1 .08 1.56.12a6.65 6.65 0 0 1-1.83.27zM21.52 73.34l-.03-.03-.17-.05.2.08zM21.03 73.19l-.85-.11-.23-.03 1.08.14zM13.11 71.75l.29.13-.3-.14.01.01zM20.37 74.43c.49.1 1 .1 1.48.22-.17.08-.17.08-1.08 0 .81.19 1.65.24 2.44.51l-.41.11c1.36.12 1.36.12 1.41.17v.06a34.62 34.62 0 0 0 4.7.06c.78-.06 1.2-.14 1.2-.14a13.37 13.37 0 0 0 1.22-.55c-.63-.13-1.25-.39-1.9-.47s-2.17-.16-3.45-.22c-1.44-.07-2.1-.12-3.05-.2.15.07.32.09.48.15A4.59 4.59 0 0 1 21.8 74h-.14l-.92-.12c.36.28.81.12 1.2.25-.51.18-1-.15-1.47-.16.29.16.71-.1.93.29-.12.15-.52.15-1.08.11zM54.35 70.69l.07-.03-.38.15.31-.12zM50.42 72.18l.39-.13-.01-.01-.4.13.02.01zM52.84 71.28l.2-.11-.41.11h.21zM102.13 42.32a.24.24 0 0 0 .06-.12l-.09.09zM53.58 70.97l.16-.05-.22-.01.06.06zM3 61.82q.12.26.27.51L3 61.81zm0 0zM3.79 63.12c-.13-.2-.29-.44-.49-.79.08.15.09.18.09.2s-.05 0-.12-.13l.52.73zM3.82 63.15a10.87 10.87 0 0 0 .95 1.18c-.38-.45-.68-.82-1-1.21zM2.18 60.51l-.36-.88c-.06-.15-.1-.23-.15-.35l-.18-.37.69 1.6zM3.12 62.19l.15.2-.31-.47.16.27zM14.16 49.45h.17c-.1 0-.2-.06-.2 0zM13.87 51.11l.2.07-.21-.1.01.03zM13.08 50.51a.74.74 0 0 0 .5.21h-.15.07a1.08 1.08 0 0 1-.46-.18zm.42.15zm.05 0h.2-.21zM13.53 49.31l.15.05v-.01l-.15-.06v.02zM14.71 49.97l.11.04v-.02l-.11-.04v.02zM14.23 50.56l.05-.02h-.13l.08.02zM12.9 49.35l.11.08h.13-.11c-.11 0-.15-.06-.16 0zM14.38 50.17v-.03l-.1.03h.1zM14 51h.29c-.1 0-.3-.09-.3-.05zM14.51 49.78v-.13l-.05-.04.05.17zM13.8 50.53l.23.09-.01-.02-.22-.08v.01zM6.31 40.59h.01l-.02-.04.01.04zM6.31 40.52l.01-.02-.02-.05.01.07zM6.91 42.12H7zM6.28 42.88c0 .13 0 .14.06.17a1 1 0 0 0 0-.16zM12.89 49.19l.06-.02-.17-.03.11.05z" fill="#26a9e0"/><path d="M6.32 40.36c.56 1.31.56 1.31.61 1.45.07.04.07.19.07.19l-.09-.1c0 .12.13.18.09.3s-.24-.19-.37-.52 0 0-.16-.33c-.12-.27-.18-.56-.28-.84.35 1.47.8 1.93.85 1.81s0-.16-.25-.85c-.2-.44-.42-.87-.59-1.32 0 .07 0 .16.08.23zM12.59 49.42l.29.19-.38-.3.09.11zM7.55 46.8l.15.11a.42.42 0 0 0 .14.08 1 1 0 0 1-.16-.14c-.07-.08-.13-.14-.14-.09zM8 45.12a3.28 3.28 0 0 0 .45 1.22c.14.21.62.74.84.68.06-.14-.07-.42-.18-.64-.25-.44-.57-.82-.85-1.23-.12-.08-.24-.15-.26 0zM8.07 47.14h-.09l.37.18a.59.59 0 0 0-.24-.17.36.36 0 0 1-.21-.15l.17.16zM43.8 51.45l.19-.06-.22.01.03.05zM87.5 26.87v-.07.07zM87.49 26.8a1.94 1.94 0 0 0 0-.24c-.06.17-.06.22 0 .24z" fill="#26a9e0"/><path d="M77.52 4.77h-.08.08zm0 0zm6.34 7.74v-.08.08zm-35.3 36.58h-.05a7.63 7.63 0 0 1 1.32-.47l-.38.15c-.14.05-.42.16-.89.3zm-19 2.79zm0 0h-1.11.24s-.06 0-.2-.07c.35 0 .65.08 1.05.11zm-1.05-.11zM9.43 25.71s-.34.5-.44.71c.09-.11.09-.11.13-.14a58.7 58.7 0 0 1 4.16-5.71c-1.2 1.5-2.73 3.56-3.84 5.12zm-1.15 2.87A23.47 23.47 0 0 0 7 32.21c0-.14 0-.31.06-.45-.23.82-.23.82-.11 1.3l.19-.44A14.66 14.66 0 0 0 7 34.21a15.77 15.77 0 0 1 .52-2.6c-2.22 10.81 4.3 18.25 17.43 19.9l1 .2 1.88.16h.37c2.88.11 5.74-.27 8.62-.28l.86-.11h-.16.32c1-.13 3.91-.63 4.41-.73a12.83 12.83 0 0 1 2.34-.43l-.95.45a179 179 0 0 0 17.91-6.84c-1.41.74-2.64 1.76-4 2.49.31-.11.74-.25 1.06-.34a11.32 11.32 0 0 1-2.83 1.78c1.6-.65 1.62-.65 2.16-.56l-.29.31c9.14-2.7 10.62-6.33 10.52-7.15l-.39-.25-.41.13a65.89 65.89 0 0 0 5.41-4.07 4.5 4.5 0 0 0-.9 1l.41-.18c-.29.31-.61.59-.87.93a3.07 3.07 0 0 1 .67-.46 6.09 6.09 0 0 1-.81 1.27l.45-.19-.23.34h.06l.17-.14.41-.19c-.06.12-.13.28-.18.41a14.2 14.2 0 0 1 1.87-1.45v.49c3.78-4.21 5.87-6.53 5.47-7.92l-.61-.18a43 43 0 0 0 3.87-6 3.28 3.28 0 0 0-.13 2l.37-.19c-.11.24-.25.55-.34.8a32.15 32.15 0 0 0 2-3.26v.34c.68-3.3.82-4 .09-4.85l-.42.11a13.62 13.62 0 0 0-.13-6.13c1.53 2.22 1.53 2.22 1.7 2.9a5.9 5.9 0 0 1 .21-1.16c.06.13.14.3.21.43a3 3 0 0 1-.16-.83c.06.11.15.25.22.36-.32-1.18-1.3-4.75-3.86-5.91.3.85.3.85.5 1.35C79.5 4.59 73.61 3 71.67 2.41c-1.83-.45-4.29-1-6.15-1.31l-3-.39c1.37.15 2 .24 3 .44l-.38-.08c1 .18 1.26.23 2.11.42h.07l-.92-.21h.2a11.79 11.79 0 0 0-1.22-.24 26.15 26.15 0 0 1 4.91 1.25c17.82 6.49 10.51 27.16-14 39.48C30.7 54.66 1.64 50.09 8.4 28.76c-.05.11-.11.27-.15.39l.24-.64-.3.81a18.76 18.76 0 0 0-.59 1.86c.15-.56.33-1.1.49-1.66l-.16.38c.16-.55.16-.55.44-1.4l-.2.42.3-.77c-.05.13-.13.3-.18.43zM83.88 12.52v-.08.08z" fill="#26a9e0"/><path d="M48.56 49.09c.61-.19 1-.33 1.27-.45l-.26.06-1.06.41h.05zM15.3 50.8l.02-.03-.07-.02.05.05zM8.11 30.55c-.09.48-.31.92-.4 1.4a2.75 2.75 0 0 0 0 1s.1-.08.26-1.19c.12-.88.12-.89.17-1.2zM8 31.94v.05zm0-.06zM8.74 31.83l.05-.13-.02-.06-.03.19zM32.89 54.08a9 9 0 0 0 1.37-.15c.49-.08.49-.08.55 0-.11.08-.17.12-.79.22.57.08 1.1-.23 1.67-.2a6.59 6.59 0 0 1-1.24.3c5.26-.93 5.26-.93 5.72-1.07l2-.79c.06 0 .15-.08.2-.12s.36-.18.5-.32.08-.23.16-.31 0-.05 0-.07a12.76 12.76 0 0 0-3.63.49l-3.22.69.35.07c-1.57.39-2.27.54-3.42.73.49.25.94-.15 1.42-.1-.43.34-1 .17-1.43.27.4 0 .79.12 1.19.17-.26.11-.26.11-1.45.23zM21.95 51.75l-.02-.03-.12-.05.14.08zM21.59 51.62l-.66-.09-.18-.01.84.1zM15.32 50.65l.22.1-.22-.12v.02zM20.75 52.92c.38.08.78.06 1.16.17-.06.09-.12.09-.88 0a11.85 11.85 0 0 1 1.87.45l-.36.13a5.84 5.84 0 0 1 1.09.1.17.17 0 0 1 0 .1 35.35 35.35 0 0 0 3.72 0c.69-.09 1-.15 1-.15.37-.13.67-.4 1-.55-.18-.06-.21-.07-.29-.18s-.12-.15-1.1-.33c-.65-.11-1.89-.17-2.64-.21-1.13-.05-1.59-.08-2.37-.15.11.07.23.09.34.15-.12 0-.29.09-1.24 0h-.15l-.71-.09c.25.3.62.08.91.2a.13.13 0 0 0 0 .06c-.42.25-.77-.12-1.16-.11.06 0 .06 0 .18.06h.1c.32 0 .38.05.41.19-.13.15-.46.17-.91.15zM47.26 50.03l.04-.03-.29.12.25-.09zM44.18 51.24l.31-.1-.01-.01-.31.1.01.01zM46.08 50.51l.15-.1-.32.08.17.02zM87.21 27.68a.14.14 0 0 0 0-.1s-.08.05-.09.08zM46.66 50.25l.12-.04-.18-.02.06.06zM8.53 42.49a2.73 2.73 0 0 0 .16.43c-.06-.15-.12-.29-.17-.44zM9 43.54a4 4 0 0 1-.31-.62v.17c0 .02 0 0-.09-.1l.38.55z" fill="#26a9e0"/><path d="M9 43.57a6.68 6.68 0 0 0 .67.92l-.69-1zM7.88 41.53l-.2-.68a2.17 2.17 0 0 0-.1-.28 1.74 1.74 0 0 1-.15-.27c.13.37.31.86.45 1.23zM8.51 42.83a.91.91 0 0 1 .11.16l-.22-.36.11.2zM23.29 29.63h.12-.13zM22.48 31.08l.12.03-.12-.05v.02zM22.11 30.67c.09.11.1.12.3.12h-.1a.23.23 0 0 1 .12 0h.1a2.66 2.66 0 0 1-.28 0 .6.6 0 0 1-.16-.08zM22.89 29.59l.09.03v-.02l-.09-.02v.01zM23.49 30l.07.01.01-.01-.07-.02-.01.02zM22.93 30.57l.06-.04-.1.02.04.02zM22.4 29.72l.05.05h.09-.14zM23.19 30.21l.01-.03-.08.04.07-.01zM22.62 31zm.05 0zm0 0h.1a.24.24 0 0 0-.1 0zM23.42 29.86l.05-.12-.02-.02-.03.14zM22.64 30.6l.14.04v-.02l-.14-.03v.01zM19.27 24.63l-.02-.01.02.01zM19.28 24.59l.02-.02-.03-.02.01.04zM19.59 25.46zM18.61 26.16v.1a.15.15 0 0 0 0-.09zM22.45 29.59l.05-.03-.11.01.06.02z" fill="#26a9e0"/><path d="M19.32 24.49a1.7 1.7 0 0 1 .37.77c.06 0 0 .1 0 .14l-.07-.05v.2a.39.39 0 0 1-.24-.26.06.06 0 0 1-.07 0 .66.66 0 0 1 0-.15c-.07-.15-.08-.31-.14-.47.13 1 .48 1 .54.95s.1-.14 0-.5-.28-.45-.4-.68v.13zM22.14 29.83l.16.11-.19-.19.03.08zM18.73 28.69a.73.73 0 0 0 .22.09.28.28 0 0 1-.11-.07c-.05-.05-.09-.08-.11 0zM19.77 27.32a1.55 1.55 0 0 0 0 .75.62.62 0 0 0 .51.43c.19 0 .13-.42.13-.42a2.41 2.41 0 0 0-.37-.8c-.08 0-.18-.06-.24 0zM19.12 28.83H19l.3.06a.27.27 0 0 0-.18-.08H19l.11.08zM39.6 31.35l.12-.03-.13-.01.01.04zM22.09 13.24a7 7 0 0 0-1.94 2 3.4 3.4 0 0 0 .9-.79c1.08-1.16 1.08-1.16 1.11-1.21h-.06zM68.1 17zM68.09 17v-.16.16zM59.85 3.93h-.07.07zm0 0zm3.54 4.7zm0 0zM42.3 29.77a2.64 2.64 0 0 1 .75-.26l-.24.09a5 5 0 0 1-.48.16zM31.78 31zm0 0h-.59.12c.06 0 0-.06-.08-.08a4.86 4.86 0 0 0 .55.11zm-.55-.11zM21.71 18c-1.11 2-1.11 2-.84 2.33a.77.77 0 0 1 .31-.31c-.14.69-.14.69-.17.81a5.54 5.54 0 0 1 .53-1.36c-1.93 5.7 1.12 10.08 7.77 11.17l.48.17 1 .13h.37H31c1.56.12 3.12-.12 4.68 0h.57c.42 0 2.08-.26 2.45-.32s.91-.19 1.37-.22c-.13.08-.31.2-.44.3 1.14-.43 10.08-3.63 10.16-3.66a3.93 3.93 0 0 0-1.44 1h.23c-.28.18-.61.29-.89.48a2.37 2.37 0 0 1 .46-.11 4.72 4.72 0 0 1-1.6 1.13c1-.37 1-.36 1.35-.23l-.15.23c6.21-1.31 6.2-4.3 6.2-4.33-.65-.2-.65-.2-.79-.17.69-.45.69-.45 3.23-2.33a2.09 2.09 0 0 0-.5.63h.24l-.18.16-.15.13-.14.21a5.82 5.82 0 0 1 .56-.44 1.48 1.48 0 0 1-.51 1 1.4 1.4 0 0 1 .48-.18l-.13.24a.83.83 0 0 1 .45-.19v.22a6.14 6.14 0 0 1 1.18-.85c0 .1 0 .23.08.33 2.76-3.44 2.76-3.44 3-4.55-.21-.29-.23-.32-.67-.36a18.2 18.2 0 0 0 2.41-3.69 11.52 11.52 0 0 0-.09 1.17l.22-.07v.24c0 .07.35-.16.5-.24 0 .14-.08.33-.11.47.22-.46.22-.46.37-.62l.22.08c.19-.16.29-.24.8-1.35a1.46 1.46 0 0 0 .05.2c.18-1.84.31-3.06-1-2.71a8.31 8.31 0 0 0 0-3.68 6 6 0 0 0 1.54 1 3.1 3.1 0 0 0 .15.52 3.7 3.7 0 0 0-.07-.48l.22-.09.16.22a1.42 1.42 0 0 1-.07-.22l.11-.2.19.18a.68.68 0 0 1-.07-.46l.21.14c-.11-.32-.11-.32-.36-.91 0-.07.09-.16.12-.22a5.49 5.49 0 0 0-1.39-1.76s-1.58-1.29-1.39.58c-.82-1.5-1.24-1.77-3.28-3.31l.24.06c-.4-.14-.74-.41-1.14-.56h.24c-6.16-1.47-6.16-1.47-17.6-.35l.54-.17-2.33.6.25-.09c-9.64 3-18.54 11-19.34 13.47l.19.14c.83-.19.83-.19 6-5.34a3.23 3.23 0 0 1-.42.2l.35-.4a11.09 11.09 0 0 1 1.16-1.25c-.47.29-1 .41-1.5.69l.2-.18a37 37 0 0 1 20.9-7.6c-.79.09-.79.09-.95.32a13.35 13.35 0 0 0 1.67.13 15.6 15.6 0 0 1 2.83.24l-.13-.11a5.87 5.87 0 0 1 1.17.15l-.06-.06h.25l-.56-.15h.24c-.11-.13-.11-.13-.63-.28a14.49 14.49 0 0 1 2.58.71c9.21 3.6 5.16 14.46-7.74 20.75S18.56 28.66 22.22 18l-.13.24.16-.32-.2.41c-.11.28-.25.55-.38.83.15-.34.2-.45.38-.83l-.21.09c0-.19.09-.43.14-.6a1.4 1.4 0 0 1-.3.39l.17-.43a1.55 1.55 0 0 0-.12.22zM63.39 8.63v.01-.01zM63.39 8.68z" fill="#26a9e0"/><path d="M42.3 29.77a6.26 6.26 0 0 0 .72-.25h-.15l-.6.24zM23.61 30.64l.03-.04-.04-.01.01.05zM22.49 18.79a.73.73 0 0 1-.19.34.76.76 0 0 0-.23.51s0 .45.16.29a.94.94 0 0 0 .24-.58 3.52 3.52 0 0 0 0-.56zM22.64 19.41zm0 0zM23.88 19.12l.07-.07-.03-.02-.04.09zM33.26 33a5.48 5.48 0 0 0 1.08-.13s0 .1-.48.17c.34.1.63-.15 1-.11-.2.22-.48.14-.72.22a22.05 22.05 0 0 0 3.51-.71s1.6-.62 1.52-1.15c-.15-.09-.62-.14-2 .16-.62.13-1.23.28-1.85.42l.19.08a15.56 15.56 0 0 1-2 .5c.06.06.1.07.4 0s.36-.05.43 0c-.26.18-.57.11-.86.18a5 5 0 0 1 .66.2c-.16.09-.16.09-.85.16zM27.54 30.94v-.03l-.06-.03.06.06zM27.36 30.84L27 30.8h-.11l.47.04zM23.68 30.5l.12.07-.12-.08v.01zM26.47 32.05a4.77 4.77 0 0 1 .66.1c-.06.08-.07.08-.54.06a3.3 3.3 0 0 1 1 .33l-.26.13c.61 0 .61 0 .63.06a.18.18 0 0 1 0 .09h1.5a5.94 5.94 0 0 0 .86-.09 1.43 1.43 0 0 0 .51-.16c.22-.12.37-.31.57-.44-.09-.06-.1-.07-.12-.17s0-.14-.55-.3a7.18 7.18 0 0 0-1.44-.18c-1 0-1 0-1.33-.07 0 .06.11.08.16.13s-.19.08-.73 0h-.46c.05.24.38 0 .49.16s-.12.09-.34 0a.84.84 0 0 0-.34-.05c.08.13.45.05.34.21s-.48.18-.6.18zM41.58 30.44l.03-.03-.17.08.14-.05zM39.83 31.2l.17-.06v-.01l-.18.06.01.01zM40.91 30.74l.09-.08-.19.05.1.03zM68 17.57v-.06a.2.2 0 0 0-.09 0zM41.24 30.57l.07-.02-.1-.04.03.06zM21.22 25.3a.91.91 0 0 0 0 .25v-.25zm0 0zM21.32 25.92a1.66 1.66 0 0 1-.09-.37c0 .08 0 .15-.06.09l.18.31z" fill="#26a9e0"/><path d="M21.32 25.93a1.86 1.86 0 0 0 .3.52l-.3-.53zM20.86 24.8v-.4a.33.33 0 0 0 0-.15l-.09-.13c0 .2.09.48.14.68zM21.09 25.53l.05.08-.09-.2.04.12z" fill="#26a9e0"/></svg>